<svg width="34" height="34" viewBox="0 0 38 38" fill="none" xmlns="http://www.w3.org/2000/svg">
<path d="M30.0846 3.16675H7.91797C6.65819 3.16675 5.45001 3.66719 4.55921 4.55799C3.66841 5.44879 3.16797 6.65697 3.16797 7.91675V23.7501C3.16797 25.0099 3.66841 26.218 4.55921 27.1088C5.45001 27.9996 6.65819 28.5001 7.91797 28.5001H26.2688L32.1271 34.3742C32.2751 34.521 32.4505 34.6371 32.6434 34.7159C32.8364 34.7947 33.0429 34.8346 33.2513 34.8334C33.459 34.8388 33.6651 34.7954 33.853 34.7067C34.1421 34.588 34.3896 34.3863 34.5643 34.127C34.739 33.8678 34.8331 33.5627 34.8346 33.2501V7.91675C34.8346 6.65697 34.3342 5.44879 33.4434 4.55799C32.5526 3.66719 31.3444 3.16675 30.0846 3.16675ZM31.668 29.4342L28.0421 25.7926C27.8942 25.6458 27.7187 25.5297 27.5258 25.4509C27.3329 25.3721 27.1263 25.3322 26.918 25.3334H7.91797C7.49804 25.3334 7.09532 25.1666 6.79838 24.8697C6.50145 24.5727 6.33464 24.17 6.33464 23.7501V7.91675C6.33464 7.49682 6.50145 7.0941 6.79838 6.79716C7.09532 6.50023 7.49804 6.33341 7.91797 6.33341H30.0846C30.5046 6.33341 30.9073 6.50023 31.2042 6.79716C31.5012 7.0941 31.668 7.49682 31.668 7.91675V29.4342Z" fill="white"/>
<path d="M5.80469 5.80566H32.1936V31.6668L26.9158 26.389H5.80469V5.80566Z" fill="white"/>
<circle cx="11.0833" cy="15.8333" r="1.58333" fill="#2079FF"/>
<circle cx="19.0013" cy="15.8333" r="1.58333" fill="#2079FF"/>
<circle cx="26.9154" cy="15.8333" r="1.58333" fill="#2079FF"/>
</svg>
