<svg width="20" height="20" viewBox="0 0 24 24" fill="none" xmlns="http://www.w3.org/2000/svg">
<path d="M21.6818 23.6245L14.0455 15.9772C13.3636 16.5235 12.5795 16.9559 11.6932 17.2745C10.8068 17.5932 9.86364 17.7525 8.86364 17.7525C6.38636 17.7525 4.29 16.8931 2.57455 15.1743C0.859091 13.4555 0.000909091 11.3561 0 8.87624C0 6.39545 0.858182 4.2961 2.57455 2.57821C4.29091 0.860313 6.38727 0.000910384 8.86364 0C11.3409 0 13.4373 0.859403 15.1527 2.57821C16.8682 4.29701 17.7264 6.39636 17.7273 8.87624C17.7273 9.87767 17.5682 10.8222 17.25 11.7098C16.9318 12.5974 16.5 13.3826 15.9545 14.0654L23.625 21.7468C23.875 21.9972 24 22.3044 24 22.6686C24 23.0327 23.8636 23.3513 23.5909 23.6245C23.3409 23.8748 23.0227 24 22.6364 24C22.25 24 21.9318 23.8748 21.6818 23.6245ZM8.86364 15.0213C10.5682 15.0213 12.0173 14.4237 13.2109 13.2283C14.4045 12.033 15.0009 10.5823 15 8.87624C15 7.16927 14.4032 5.71812 13.2095 4.52279C12.0159 3.32745 10.5673 2.73024 8.86364 2.73115C7.15909 2.73115 5.71 3.32882 4.51636 4.52415C3.32273 5.71949 2.72636 7.17018 2.72727 8.87624C2.72727 10.5832 3.32409 12.0344 4.51773 13.2297C5.71136 14.425 7.16 15.0222 8.86364 15.0213Z" fill="#3F4044"/>
</svg>
